<?xml version="1.0" encoding="utf-8"?>
<!-- Uploaded to: SVG Repo, www.svgrepo.com, Generator: SVG Repo Mixer Tools -->
<svg width="800px" height="800px" viewBox="0 0 1024 1024" class="icon"  version="1.1" xmlns="http://www.w3.org/2000/svg"><path d="M708.03206 208.369879l-7.063784-4.62489c-17.004687-11.346697-50.074136-33.382757-88.830243-43.510007-3.002032-11.313933-10.565473-29.692674-29.381414-41.851313-16.876702-10.908474-38.257475-13.535764-60.072376-7.156958-22.631961 6.625562-39.698082 23.658918-48.6366 50.039323l-9.877422 41.04142c-64.950166 50.071064-111.519542 120.459085-127.712288 166.093653-24.129905 67.828307-8.062073 119.649191 21.94391 153.969827l-92.646264 145.341546-16.626873-10.625882c-8.564801-5.377446-18.567136-8.254563-29.068105-8.254563-18.502632 0.063481-35.81858 9.127938-45.259827 23.819668l-71.825555 112.64684c-15.628586 24.693042-7.816341 57.825971 17.439839 74.014622l70.452525 44.821604c8.999952 5.751164 19.252116 8.750124 29.817588 8.750124 18.252804 0 34.944182-9.064457 44.636281-24.190315l71.387333-112.835234c7.751836-12.191403 10.440559-26.443886 6.93887-40.571456-3.312269-13.689347-11.878094-25.506007-24.004991-33.254772l-16.063737-10.255235 89.515222-140.527237c1.376102 0.812965 2.62729 1.875758 4.00032 2.624218 16.755883 9.317356 43.758811 15.69309 78.51767 23.880077 45.506583 10.753868 102.081367 24.068472 160.531909 50.512359 40.756779 18.439151 72.138864 38.257475 97.331563 54.196298 36.631545 23.130593 63.138912 39.883405 94.895739 39.883405h0.809894c41.134593-0.374742 88.331611-103.207641 101.083078-221.481754 3.498616-77.449758-96.146928-208.663734-222.232262-292.495368z" fill="#27323A" /><path d="M166.485802 835.434111l-22.00432-13.939174c-4.503048-2.877118-6.125906-8.314973-3.690083-12.191403l71.765147-112.521926c1.437535-2.189067 4.00032-3.501688 6.878461-3.501687 1.936167-0.060409 3.87643 0.499656 5.623178 1.686339l21.754492 13.567504-80.326875 126.900347zM299.261203 751.915785l-71.390405 112.835235c-1.37303 2.125586-4.375062 3.25186-7.374022 3.187355a9.624522 9.624522 0 0 1-5.56584-1.561425l-21.316269-13.814261 80.579775-126.652567 21.380774 13.877742c2.37439 1.501016 3.936839 3.690083 4.560385 6.19041 0.502728 2.125586 0.188395 4.251172-0.874398 5.937511z" fill="#79CCBF" /><path d="M823.805846 674.089238c-16.816293-1.936167-36.321308-14.315965-64.701362-32.19505-26.443886-16.751788-59.387397-37.569424-103.20764-57.384677-62.70069-28.319644-121.774777-42.257795-169.723327-53.575824-26.942518-6.375734-54.820868-12.936791-65.824564-19.002287-21.066441-11.688675-67.075752-47.510327-38.632217-127.462461 12.001984-33.882413 53.383333-101.456797 117.95978-148.7818 4.564481-3.373702 7.816341-8.251492 9.127938-13.749756l11.313933-47.260499c3.25186-9.470939 8.50132-15.190363 16.128241-17.41117 3.437183-1.031053 6.750476-1.529685 9.688003-1.529684 4.064825 0 7.691427 0.998288 10.690387 2.93855 7.626922 4.938199 9.314285 14.315965 9.563089 16.345306l1.315693 8.846369c1.561425 10.440559 9.688003 18.627546 20.06508 20.221735 35.633257 5.5341 68.8911 27.663334 86.894076 39.665318l7.063785 4.689394c127.587374 84.829923 202.914618 202.914618 200.853536 248.737582-11.193114 103.767706-46.197706 164.032572-58.574431 176.908954z" fill="#F4CE73" /><path d="M789.235382 552.689203c-12.191403 0-21.815925-5.124546-29.567761-9.24978-17.629258-9.377766-42.072472-27.57016-67.888716-46.822276-22.507047-16.755883-45.823988-34.070808-62.950518-44.322972-26.194058-15.690019-65.264498-28.255139-65.63924-28.380053-46.508967-15.440191-46.508967-61.263155-46.508967-76.265123 0-47.260499 37.819252-85.642888 84.327195-85.642888 18.128914 0 31.820308 12.251812 50.762187 29.193019 7.124194 6.375734 15.315277 13.689347 25.192698 21.754491 5.687683 4.62489 17.066121 9.563089 29.129538 14.815621 20.256547 8.750124 43.260179 18.75246 58.638936 34.820292 47.69565 49.510999 72.703025 95.6442 76.450446 141.026893 0.87747 11.378438-3.188379 22.567456-11.50028 31.571504-10.064793 11.000624-25.191675 17.501272-40.445518 17.501272z" fill="#27323A" /><path d="M601.008399 294.012767c-28.879709 0-52.32054 24.068472-52.32054 53.636232 0 27.128866 6.813957 40.008319 24.440143 45.819892 1.565521 0.502728 42.821956 13.817332 72.138864 31.382086 18.567136 11.065129 42.447214 28.879709 65.577807 46.070744 23.815573 17.692738 48.383701 36.006975 63.135841 43.883725 16.506055 8.814629 25.445598 6.000992 32.19505-1.248116 2.189067-2.37439 3.25186-5.002704 3.123874-7.378118-3.123874-37.693314-25.253108-77.451805-67.635816-121.400035-11.003696-11.438847-30.818948-20.065081-48.323292-27.692003-14.12757-6.125906-27.506679-11.938503-36.570112-19.315596-10.312573-8.439887-18.941879-16.066809-26.315901-22.692371-13.129282-11.752156-23.505335-21.066441-29.445918-21.06644z" fill="#FFFFFF" /></svg>